<svg xmlns="http://www.w3.org/2000/svg" xmlns:xlink="http://www.w3.org/1999/xlink" width="1366" zoomAndPan="magnify" viewBox="0 0 1024.5 576" height="768" preserveAspectRatio="xMidYMid meet" version="1.0"><defs><filter x="0%" y="0%" width="100%" height="100%" id="dc55b6c038"><feColorMatrix values="0 0 0 0 1 0 0 0 0 1 0 0 0 0 1 0 0 0 1 0" color-interpolation-filters="sRGB"/></filter><clipPath id="8931d851e2"><path d="M 0 0.140625 L 1024 0.140625 L 1024 575.859375 L 0 575.859375 Z M 0 0.140625 " clip-rule="nonzero"/></clipPath><clipPath id="13174d34d7"><path d="M 749 0.140625 L 1024 0.140625 L 1024 421 L 749 421 Z M 749 0.140625 " clip-rule="nonzero"/></clipPath><mask id="2ebd19d9ed"><g filter="url(#dc55b6c038)"><rect x="-102.45" width="1229.4" fill="#000000" y="-57.6" height="691.2" fill-opacity="0.35"/></g></mask><clipPath id="3727a1ad3c"><path d="M 0.316406 0.140625 L 275 0.140625 L 275 419 L 0.316406 419 Z M 0.316406 0.140625 " clip-rule="nonzero"/></clipPath><clipPath id="f0bfd020d9"><path d="M 0.316406 34 L 275 34 L 275 395 L 0.316406 395 Z M 0.316406 34 " clip-rule="nonzero"/></clipPath><clipPath id="e9af312d3a"><path d="M 0.316406 18 L 275 18 L 275 420.332031 L 0.316406 420.332031 Z M 0.316406 18 " clip-rule="nonzero"/></clipPath><clipPath id="eb5995003c"><path d="M 0.316406 195 L 275 195 L 275 420 L 0.316406 420 Z M 0.316406 195 " clip-rule="nonzero"/></clipPath><clipPath id="5299063a28"><rect x="0" width="275" y="0" height="421"/></clipPath><clipPath id="b2e4dac0af"><path d="M 0 0.140625 L 751 0.140625 L 751 421 L 0 421 Z M 0 0.140625 " clip-rule="nonzero"/></clipPath><mask id="9b0469d854"><g filter="url(#dc55b6c038)"><rect x="-102.45" width="1229.4" fill="#000000" y="-57.6" height="691.2" fill-opacity="0.35"/></g></mask><clipPath id="166e115a96"><path d="M 0 0.140625 L 750 0.140625 L 750 419 L 0 419 Z M 0 0.140625 " clip-rule="nonzero"/></clipPath><clipPath id="9fd0b8b2ce"><path d="M 0 34 L 750 34 L 750 395 L 0 395 Z M 0 34 " clip-rule="nonzero"/></clipPath><clipPath id="9ac6d940cf"><path d="M 0 18 L 750 18 L 750 420.332031 L 0 420.332031 Z M 0 18 " clip-rule="nonzero"/></clipPath><clipPath id="0b7bee7dfd"><path d="M 0 195 L 750 195 L 750 420 L 0 420 Z M 0 195 " clip-rule="nonzero"/></clipPath><clipPath id="bc0dfec248"><rect x="0" width="751" y="0" height="421"/></clipPath><clipPath id="3b2fa754ad"><path d="M 0 419.582031 L 1024 419.582031 L 1024 575.109375 L 0 575.109375 Z M 0 419.582031 " clip-rule="nonzero"/></clipPath><clipPath id="328ef7ce19"><path d="M 0 0.140625 L 1024 0.140625 L 1024 575.859375 L 0 575.859375 Z M 0 0.140625 " clip-rule="nonzero"/></clipPath><mask id="a18bdf6bdb"><g filter="url(#dc55b6c038)"><rect x="-102.45" width="1229.4" fill="#000000" y="-57.6" height="691.2" fill-opacity="0.97"/></g></mask><clipPath id="ab9327744a"><path d="M 389 0.140625 L 1024 0.140625 L 1024 575.140625 L 389 575.140625 Z M 389 0.140625 " clip-rule="nonzero"/></clipPath><mask id="2a41a9c051"><g filter="url(#dc55b6c038)"><rect x="-225.39" width="1475.28" fill="#000000" y="-126.72" height="829.44" fill-opacity="0.4"/></g></mask><clipPath id="facffdba86"><path d="M 0.480469 0.140625 L 635 0.140625 L 635 574 L 0.480469 574 Z M 0.480469 0.140625 " clip-rule="nonzero"/></clipPath><clipPath id="03b126d500"><path d="M 1 188 L 635 188 L 635 550 L 1 550 Z M 1 188 " clip-rule="nonzero"/></clipPath><clipPath id="587863761f"><path d="M 1 173 L 635 173 L 635 575.109375 L 1 575.109375 Z M 1 173 " clip-rule="nonzero"/></clipPath><clipPath id="54592981f5"><path d="M 0.480469 350 L 635 350 L 635 575 L 0.480469 575 Z M 0.480469 350 " clip-rule="nonzero"/></clipPath><clipPath id="2bf70a5f52"><rect x="0" width="635" y="0" height="576"/></clipPath><clipPath id="76312736fb"><path d="M 0 0.140625 L 391 0.140625 L 391 575.140625 L 0 575.140625 Z M 0 0.140625 " clip-rule="nonzero"/></clipPath><mask id="73ce9a1e72"><g filter="url(#dc55b6c038)"><rect x="-225.39" width="1475.28" fill="#000000" y="-126.72" height="829.44" fill-opacity="0.4"/></g></mask><clipPath id="f23c07bf9d"><path d="M 0 0.140625 L 390 0.140625 L 390 574 L 0 574 Z M 0 0.140625 " clip-rule="nonzero"/></clipPath><clipPath id="313b963776"><path d="M 0 188 L 390 188 L 390 550 L 0 550 Z M 0 188 " clip-rule="nonzero"/></clipPath><clipPath id="2357f06e6e"><path d="M 0 173 L 390 173 L 390 575.109375 L 0 575.109375 Z M 0 173 " clip-rule="nonzero"/></clipPath><clipPath id="0d8fa2460c"><path d="M 0 350 L 390 350 L 390 575 L 0 575 Z M 0 350 " clip-rule="nonzero"/></clipPath><clipPath id="0193e4521c"><rect x="0" width="391" y="0" height="576"/></clipPath><clipPath id="6f14b16a27"><rect x="0" width="1024" y="0" height="576"/></clipPath><mask id="481fd443c1"><g filter="url(#dc55b6c038)"><rect x="-102.45" width="1229.4" fill="#000000" y="-57.6" height="691.2" fill-opacity="0.29"/></g></mask><clipPath id="1036ca94b1"><path d="M 0 0.140625 L 1024 0.140625 L 1024 575.859375 L 0 575.859375 Z M 0 0.140625 " clip-rule="nonzero"/></clipPath><clipPath id="9e429eb11e"><rect x="0" width="1024" y="0" height="576"/></clipPath></defs><g clip-path="url(#8931d851e2)"><path fill="#ffffff" d="M 0 0.140625 L 1024 0.140625 L 1024 575.859375 L 0 575.859375 Z M 0 0.140625 " fill-opacity="1" fill-rule="nonzero"/><path fill="#f5f5dc" d="M 0 0.140625 L 1024 0.140625 L 1024 575.859375 L 0 575.859375 Z M 0 0.140625 " fill-opacity="1" fill-rule="nonzero"/></g><g clip-path="url(#13174d34d7)"><g mask="url(#2ebd19d9ed)"><g transform="matrix(1, 0, 0, 1, 749, 0.000000000000055289)"><g clip-path="url(#5299063a28)"><g clip-path="url(#3727a1ad3c)"><path fill="#f5f5dc" d="M 767.316406 -155.386719 L 0.710938 -155.386719 L 0.710938 418.953125 L 767.316406 418.953125 Z M 767.316406 -155.386719 " fill-opacity="1" fill-rule="nonzero"/></g><g clip-path="url(#f0bfd020d9)"><path fill="#ff9b50" d="M 767.316406 392.621094 C 767.316406 392.621094 20.488281 395.113281 19.53125 394.269531 L 0.941406 394.269531 L 0.941406 126.878906 L 14.742188 126.878906 L 14.742188 119.863281 L 37.277344 119.863281 L 37.277344 127.835938 L 43.335938 127.835938 L 43.335938 154.972656 L 48.816406 154.972656 L 48.816406 161.988281 L 52.113281 161.988281 L 52.113281 129.214844 L 56.519531 129.214844 L 56.519531 124.078125 L 67.519531 124.078125 L 67.519531 109.550781 L 78.253906 100.429688 L 81.011719 98.089844 L 81.011719 77.738281 L 88.832031 71.070312 L 96.652344 77.738281 L 96.652344 97.863281 L 101.058594 97.863281 L 101.058594 109.09375 L 106.003906 109.09375 L 106.003906 392.390625 L 111.484375 392.390625 L 111.484375 154.972656 L 116.96875 154.972656 L 116.96875 99.28125 L 136.207031 99.28125 L 136.207031 77.738281 L 140.617188 74.480469 L 140.617188 57.613281 L 149.96875 57.613281 L 149.96875 45.425781 L 160.433594 45.425781 L 167.027344 34.195312 L 175.265625 44.507812 L 184.082031 44.507812 L 184.082031 56.195312 L 191.789062 56.195312 L 191.789062 75.859375 L 194.816406 78.429688 L 194.816406 384.878906 L 202.40625 384.878906 L 202.40625 106.753906 L 212.101562 106.753906 L 212.101562 81.457031 L 220.34375 81.457031 L 220.34375 106.753906 L 231.878906 106.753906 L 231.878906 130.175781 L 235.175781 130.175781 L 235.175781 69.765625 L 241.234375 69.765625 L 252.769531 60.414062 L 252.769531 55.738281 L 254.957031 55.738281 L 254.957031 60.414062 L 269.253906 69.304688 L 294.015625 69.304688 L 294.015625 95.984375 L 300.605469 86.632812 L 305.550781 95.0625 L 305.550781 109.09375 L 310.496094 109.09375 L 310.496094 132.972656 L 325.328125 132.972656 L 325.328125 105.335938 L 339.625 94.105469 L 361.054688 94.105469 L 370.40625 99.738281 L 370.40625 150.296875 L 384.78125 150.296875 L 384.78125 119.402344 L 421.613281 119.402344 L 421.613281 148.878906 L 429.320312 148.878906 L 429.320312 130.175781 L 479.914062 130.175781 L 479.914062 154.511719 L 507.398438 154.511719 L 507.398438 168.542969 L 528.824219 168.542969 L 528.824219 125.496094 L 538.714844 125.496094 L 538.714844 115.1875 L 541.472656 115.1875 L 541.472656 103.496094 L 544.234375 103.496094 L 544.234375 95.523438 L 577.234375 95.523438 L 577.234375 103.496094 L 580.53125 103.496094 L 580.53125 126.417969 L 601.421875 126.417969 L 601.421875 139.066406 L 630.554688 139.066406 L 630.554688 111.429688 L 633.3125 111.429688 L 633.3125 100.199219 L 636.074219 100.199219 L 636.074219 90.847656 L 639.90625 90.847656 L 639.90625 84.753906 L 665.203125 84.753906 L 665.203125 89.890625 L 670.722656 89.890625 L 670.722656 98.320312 L 672.90625 98.320312 L 672.90625 120.324219 L 726.226562 120.324219 L 726.226562 386.296875 L 730.632812 386.296875 L 730.632812 163.867188 L 751.523438 163.867188 L 751.523438 138.109375 L 763.058594 134.390625 Z M 767.316406 392.621094 " fill-opacity="1" fill-rule="nonzero"/></g><g clip-path="url(#e9af312d3a)"><path fill="#e25e3e" d="M 767.316406 420.332031 L 767.316406 387.140625 L 758.421875 387.140625 L 758.421875 307.257812 L 753.515625 307.257812 L 753.515625 301.664062 L 724.269531 291.8125 L 724.269531 234.277344 L 715.070312 232.976562 L 715.070312 225.425781 L 719.671875 223.777344 L 686.4375 223.777344 L 690.386719 225.730469 L 690.386719 233.28125 C 690.386719 233.28125 685.441406 233.628906 683.488281 233.933594 L 683.488281 248.078125 L 679.882812 245.433594 L 679.882812 232.285156 L 678.582031 232.285156 L 678.582031 245.394531 L 674.632812 249.34375 L 674.632812 160.953125 L 657.652344 110.203125 L 654.929688 108.554688 L 654.929688 88.277344 L 653.511719 85.328125 L 651.980469 88.394531 L 651.980469 108.441406 L 649.910156 109.550781 L 644.542969 125.460938 L 632.394531 131.707031 L 632.394531 140.792969 L 630.09375 140.792969 L 630.09375 135.082031 L 627.792969 140.5625 C 627.792969 140.5625 624.304688 141.558594 624.304688 145.925781 C 624.304688 150.296875 624.304688 403.007812 624.304688 403.007812 L 620.894531 403.007812 L 619.128906 403.890625 L 619.246094 400.058594 L 615.183594 400.058594 L 615.183594 364.5625 L 617.136719 362.609375 L 617.136719 356.476562 L 605.40625 356.476562 L 605.40625 348.578125 L 606.597656 348.578125 L 606.597656 326.425781 L 592.988281 326.425781 L 591.109375 327.84375 L 591.109375 348.425781 L 592.414062 348.425781 L 592.414062 353.371094 L 590.113281 353.371094 L 590.113281 350.535156 L 584.519531 350.535156 L 584.519531 353.371094 L 582.871094 353.371094 L 582.871094 262.105469 L 580.457031 262.105469 L 580.457031 255.511719 L 579.304688 254.363281 L 579.304688 243.019531 L 580.683594 241.636719 L 579.34375 240.527344 L 579.457031 236.273438 L 575.855469 236.273438 L 575.855469 238.339844 L 570.796875 238.339844 L 567.078125 236.15625 L 567.191406 234.203125 L 562.476562 234.203125 L 562.476562 168.042969 L 557.265625 168.042969 L 557.265625 171.457031 L 547.53125 171.457031 L 547.53125 158.195312 L 535.265625 158.195312 L 535.265625 170.996094 L 532.734375 170.996094 L 532.734375 168.351562 L 527.597656 168.351562 L 527.597656 173.488281 L 522.386719 173.488281 L 522.386719 109.359375 C 522.386719 109.359375 509.238281 96.214844 510.886719 74.519531 L 507.28125 77.46875 L 503.027344 54.777344 L 500.726562 57.078125 L 498.773438 42.933594 L 496.472656 44.582031 L 492.871094 29.789062 L 487.273438 36.035156 L 484.324219 31.78125 L 482.023438 44.277344 L 479.070312 43.28125 L 478.074219 47.878906 L 476.425781 46.230469 L 474.128906 61.027344 L 472.480469 60.375 L 470.523438 76.167969 L 469.527344 79.464844 L 469.527344 298.710938 L 463.929688 298.710938 L 463.929688 309.214844 L 461.976562 309.214844 L 461.976562 232.628906 L 460.023438 232.628906 L 460.023438 222.78125 L 453.121094 222.78125 L 453.121094 191.886719 L 451.167969 191.886719 L 451.167969 185.292969 C 451.167969 185.292969 438.019531 176.09375 412.722656 176.398438 L 410.421875 176.398438 L 410.421875 184.984375 L 408.121094 187.9375 L 408.121094 411.480469 L 400.570312 411.480469 L 398.921875 408.835938 L 385.777344 408.835938 L 385.777344 405.882812 L 374.585938 405.882812 L 373.089844 407.378906 L 373.089844 77.816406 L 370.367188 75.09375 L 370.367188 62.675781 L 367.378906 59.683594 L 367.378906 53.476562 C 367.378906 53.476562 364.386719 43.929688 355.839844 39.984375 C 355.839844 39.984375 351.890625 41.9375 352.238281 19.285156 L 350.933594 18.941406 C 350.933594 18.941406 352.890625 35.039062 347.636719 39.636719 C 347.636719 39.636719 338.324219 42.589844 335.371094 53.4375 L 335.371094 60.988281 L 332.84375 62.941406 L 332.191406 67.199219 L 332.191406 74.441406 L 331.539062 77.738281 L 331.539062 123.429688 L 321.996094 127.683594 L 321.996094 136.308594 L 317.394531 136.308594 L 317.394531 143.207031 L 314.445312 143.207031 L 314.445312 148.152344 L 310.496094 156.046875 L 310.496094 186.632812 L 307.199219 186.632812 L 309.84375 181.691406 L 300.796875 172.644531 L 300.796875 169.539062 L 283.550781 169.539062 L 283.550781 172.492188 L 273.699219 182.339844 L 276.652344 185.945312 L 273.355469 186.289062 L 272.050781 190.238281 L 272.050781 338.152344 L 267.796875 338.152344 L 267.796875 343.40625 L 264.84375 343.40625 L 264.84375 353.90625 L 262.890625 353.90625 L 262.890625 406.535156 L 259.285156 406.535156 L 256.988281 404.234375 L 256.988281 222.128906 L 253.382812 222.128906 L 253.382812 214.882812 L 248.785156 212.929688 L 248.785156 208.675781 L 246.140625 208.675781 C 246.140625 208.675781 249.4375 198.171875 236.941406 197.828125 C 236.941406 197.828125 223.792969 196.179688 222.796875 207.371094 L 219.84375 209.671875 L 217.199219 213.617188 L 217.199219 197.828125 L 181.363281 197.828125 L 178.410156 199.128906 L 175.113281 154.09375 L 169.210938 154.09375 C 169.210938 154.09375 168.214844 129.445312 162.3125 105.449219 L 152.421875 105.449219 L 151.121094 99.546875 L 147.515625 99.546875 L 147.171875 110.742188 C 147.171875 110.742188 144.21875 108.097656 145.523438 186.019531 L 141.421875 190.121094 L 141.421875 335.585938 L 112.675781 335.585938 L 112.675781 370.425781 L 108.074219 370.425781 C 108.074219 370.425781 116.96875 263.601562 115.320312 211.96875 C 115.320312 211.96875 112.367188 141.941406 112.023438 136.34375 L 105.429688 131.746094 L 66.984375 131.746094 C 66.984375 131.746094 62.730469 205.378906 64.683594 237.269531 L 67.328125 354.941406 L 63.074219 354.941406 L 63.074219 350.6875 L 60.773438 348.386719 L 60.773438 331.945312 L 41.378906 331.945312 C 41.378906 331.945312 38.734375 326.691406 34.480469 321.441406 C 34.480469 321.441406 30.226562 325.042969 28.234375 329.988281 L 14.433594 329.988281 C 14.433594 329.988281 16.734375 330.640625 16.734375 339.1875 C 16.734375 339.1875 16.082031 335.890625 10.832031 334.242188 C 10.832031 334.242188 12.785156 335.242188 11.484375 347.046875 L 0.980469 347.046875 L 0.980469 420.296875 Z M 767.316406 420.332031 " fill-opacity="1" fill-rule="nonzero"/></g><g clip-path="url(#eb5995003c)"><path fill="#c63d2f" d="M 767.125 348.386719 L 761.488281 348.386719 L 761.488281 287.980469 L 754.015625 287.980469 L 754.015625 280.964844 L 734.8125 280.964844 L 734.8125 288.9375 L 729.675781 288.9375 L 729.675781 316.074219 L 725 316.074219 L 725 323.089844 L 722.199219 323.089844 L 722.199219 290.316406 L 718.445312 290.316406 L 718.445312 285.179688 L 709.054688 285.179688 L 709.054688 270.652344 L 699.929688 261.53125 L 697.59375 259.195312 L 697.59375 238.839844 L 690.921875 232.171875 L 684.253906 238.839844 L 684.253906 258.964844 L 680.496094 258.964844 L 680.496094 270.195312 L 676.28125 270.195312 L 676.28125 346.507812 L 671.605469 346.507812 L 671.605469 316.074219 L 666.929688 316.074219 L 666.929688 260.382812 L 650.5625 260.382812 L 650.5625 238.839844 L 646.804688 235.582031 L 646.804688 218.714844 L 638.832031 218.714844 L 638.832031 206.527344 L 629.941406 206.527344 L 624.304688 195.296875 L 617.289062 205.609375 L 609.816406 205.609375 L 609.816406 217.296875 L 603.261719 217.296875 L 603.261719 236.960938 L 600.695312 239.53125 L 600.695312 338.996094 L 594.214844 338.996094 L 594.214844 267.816406 L 585.9375 267.816406 L 585.9375 242.519531 L 578.921875 242.519531 L 578.921875 267.816406 L 569.109375 267.816406 L 569.109375 291.238281 L 566.3125 291.238281 L 566.3125 230.828125 L 561.097656 230.828125 L 551.285156 221.476562 L 551.285156 216.800781 L 549.40625 216.800781 L 549.40625 221.476562 L 537.21875 230.367188 L 516.136719 230.367188 L 516.136719 257.046875 L 510.503906 247.695312 L 506.285156 256.128906 L 506.285156 270.15625 L 502.070312 270.15625 L 502.070312 294.035156 L 489.421875 294.035156 L 489.421875 266.398438 L 477.230469 255.167969 L 458.988281 255.167969 L 451.015625 260.804688 L 451.015625 311.359375 L 438.824219 311.359375 L 438.824219 280.464844 L 407.472656 280.464844 L 407.472656 309.941406 L 400.917969 309.941406 L 400.917969 291.199219 L 357.832031 291.199219 L 357.832031 315.539062 L 334.414062 315.539062 L 334.414062 329.566406 L 316.167969 329.566406 L 316.167969 286.484375 L 307.734375 286.484375 L 307.734375 276.171875 L 305.398438 276.171875 L 305.398438 264.484375 L 303.058594 264.484375 L 303.058594 256.511719 L 274.964844 256.511719 L 274.964844 264.484375 L 272.164062 264.484375 L 272.164062 287.40625 L 254.378906 287.40625 L 254.378906 300.054688 L 229.582031 300.054688 L 229.582031 272.417969 L 227.242188 272.417969 L 227.242188 261.1875 L 224.90625 261.1875 L 224.90625 251.835938 L 221.648438 251.835938 L 221.648438 245.738281 L 200.105469 245.738281 L 200.105469 250.875 L 195.429688 250.875 L 195.429688 259.308594 L 193.550781 259.308594 L 193.550781 281.308594 L 148.128906 281.308594 L 148.128906 340.300781 L 144.375 340.300781 L 144.375 324.851562 L 126.585938 324.851562 L 126.585938 299.09375 L 116.773438 299.09375 L 116.773438 295.339844 L 91.015625 295.339844 L 91.015625 289.246094 L 91.015625 379.589844 C 91.015625 379.589844 83.542969 384.265625 83.542969 379.589844 C 83.542969 374.914062 83.542969 299.515625 83.542969 299.515625 L 59.664062 299.515625 L 59.664062 380.507812 L 55.90625 380.507812 L 55.90625 299.515625 L 30.148438 299.515625 L 30.148438 384.265625 L 27.351562 384.265625 L 27.351562 325.273438 L 0.671875 325.273438 L 0.671875 419.566406 L 767.125 419.566406 C 767.125 419.566406 767.582031 347.925781 767.125 348.386719 Z M 767.125 348.386719 " fill-opacity="1" fill-rule="nonzero"/></g></g></g></g></g><g clip-path="url(#b2e4dac0af)"><g mask="url(#9b0469d854)"><g transform="matrix(1, 0, 0, 1, 0, 0.000000000000055289)"><g clip-path="url(#bc0dfec248)"><g clip-path="url(#166e115a96)"><path fill="#f5f5dc" d="M -16.933594 -155.386719 L 749.667969 -155.386719 L 749.667969 418.953125 L -16.933594 418.953125 Z M -16.933594 -155.386719 " fill-opacity="1" fill-rule="nonzero"/></g><g clip-path="url(#9fd0b8b2ce)"><path fill="#ff9b50" d="M -16.933594 392.621094 C -16.933594 392.621094 729.890625 395.113281 730.847656 394.269531 L 749.4375 394.269531 L 749.4375 126.878906 L 735.640625 126.878906 L 735.640625 119.863281 L 713.101562 119.863281 L 713.101562 127.835938 L 707.046875 127.835938 L 707.046875 154.972656 L 701.566406 154.972656 L 701.566406 161.988281 L 698.269531 161.988281 L 698.269531 129.214844 L 693.859375 129.214844 L 693.859375 124.078125 L 682.859375 124.078125 L 682.859375 109.550781 L 672.128906 100.429688 L 669.367188 98.089844 L 669.367188 77.738281 L 661.546875 71.070312 L 653.730469 77.738281 L 653.730469 97.863281 L 649.320312 97.863281 L 649.320312 109.09375 L 644.375 109.09375 L 644.375 392.390625 L 638.894531 392.390625 L 638.894531 154.972656 L 633.414062 154.972656 L 633.414062 99.28125 L 614.171875 99.28125 L 614.171875 77.738281 L 609.765625 74.480469 L 609.765625 57.613281 L 600.410156 57.613281 L 600.410156 45.425781 L 589.949219 45.425781 L 583.355469 34.195312 L 575.113281 44.507812 L 566.296875 44.507812 L 566.296875 56.195312 L 558.59375 56.195312 L 558.59375 75.859375 L 555.566406 78.429688 L 555.566406 384.878906 L 547.976562 384.878906 L 547.976562 106.753906 L 538.277344 106.753906 L 538.277344 81.457031 L 530.039062 81.457031 L 530.039062 106.753906 L 518.5 106.753906 L 518.5 130.175781 L 515.203125 130.175781 L 515.203125 69.765625 L 509.148438 69.765625 L 497.609375 60.414062 L 497.609375 55.738281 L 495.425781 55.738281 L 495.425781 60.414062 L 481.128906 69.304688 L 456.367188 69.304688 L 456.367188 95.984375 L 449.773438 86.632812 L 444.828125 95.0625 L 444.828125 109.09375 L 439.882812 109.09375 L 439.882812 132.972656 L 425.050781 132.972656 L 425.050781 105.335938 L 410.753906 94.105469 L 389.328125 94.105469 L 379.976562 99.738281 L 379.976562 150.296875 L 365.601562 150.296875 L 365.601562 119.402344 L 328.765625 119.402344 L 328.765625 148.878906 L 321.0625 148.878906 L 321.0625 130.175781 L 270.464844 130.175781 L 270.464844 154.511719 L 242.984375 154.511719 L 242.984375 168.542969 L 221.554688 168.542969 L 221.554688 125.496094 L 211.667969 125.496094 L 211.667969 115.1875 L 208.90625 115.1875 L 208.90625 103.496094 L 206.148438 103.496094 L 206.148438 95.523438 L 173.144531 95.523438 L 173.144531 103.496094 L 169.847656 103.496094 L 169.847656 126.417969 L 148.957031 126.417969 L 148.957031 139.066406 L 119.828125 139.066406 L 119.828125 111.429688 L 117.066406 111.429688 L 117.066406 100.199219 L 114.308594 100.199219 L 114.308594 90.847656 L 110.476562 90.847656 L 110.476562 84.753906 L 85.175781 84.753906 L 85.175781 89.890625 L 79.65625 89.890625 L 79.65625 98.320312 L 77.472656 98.320312 L 77.472656 120.324219 L 24.15625 120.324219 L 24.15625 386.296875 L 19.746094 386.296875 L 19.746094 163.867188 L -1.140625 163.867188 L -1.140625 138.109375 L -12.679688 134.390625 Z M -16.933594 392.621094 " fill-opacity="1" fill-rule="nonzero"/></g><g clip-path="url(#9ac6d940cf)"><path fill="#e25e3e" d="M -16.933594 420.332031 L -16.933594 387.140625 L -8.042969 387.140625 L -8.042969 307.257812 L -3.136719 307.257812 L -3.136719 301.664062 L 26.109375 291.8125 L 26.109375 234.277344 L 35.308594 232.976562 L 35.308594 225.425781 L 30.710938 223.777344 L 63.941406 223.777344 L 59.996094 225.730469 L 59.996094 233.28125 C 59.996094 233.28125 64.9375 233.628906 66.894531 233.933594 L 66.894531 248.078125 L 70.496094 245.433594 L 70.496094 232.285156 L 71.800781 232.285156 L 71.800781 245.394531 L 75.75 249.34375 L 75.75 160.953125 L 92.726562 110.203125 L 95.449219 108.554688 L 95.449219 88.277344 L 96.867188 85.328125 L 98.402344 88.394531 L 98.402344 108.441406 L 100.472656 109.550781 L 105.835938 125.460938 L 117.988281 131.707031 L 117.988281 140.792969 L 120.289062 140.792969 L 120.289062 135.082031 L 122.585938 140.5625 C 122.585938 140.5625 126.074219 141.558594 126.074219 145.925781 C 126.074219 150.296875 126.074219 403.007812 126.074219 403.007812 L 129.488281 403.007812 L 131.25 403.890625 L 131.136719 400.058594 L 135.199219 400.058594 L 135.199219 364.5625 L 134.277344 363.644531 L 133.242188 362.609375 L 133.242188 356.476562 L 144.972656 356.476562 L 144.972656 348.578125 L 143.785156 348.578125 L 143.785156 326.425781 L 157.390625 326.425781 L 159.269531 327.84375 L 159.269531 348.425781 L 157.964844 348.425781 L 157.964844 353.371094 L 160.265625 353.371094 L 160.265625 350.535156 L 165.863281 350.535156 L 165.863281 353.371094 L 167.511719 353.371094 L 167.511719 262.105469 L 169.925781 262.105469 L 169.925781 255.511719 L 171.074219 254.363281 L 171.074219 243.019531 L 169.695312 241.636719 L 171.035156 240.527344 L 170.921875 236.273438 L 174.523438 236.273438 L 174.523438 238.339844 L 179.585938 238.339844 L 183.300781 236.15625 L 183.1875 234.203125 L 187.902344 234.203125 L 187.902344 168.042969 L 193.113281 168.042969 L 193.113281 171.457031 L 202.851562 171.457031 L 202.851562 158.195312 L 215.117188 158.195312 L 215.117188 170.996094 L 217.648438 170.996094 L 217.648438 168.351562 L 222.78125 168.351562 L 222.78125 173.488281 L 227.996094 173.488281 L 227.996094 109.359375 C 227.996094 109.359375 241.144531 96.214844 239.496094 74.519531 L 243.097656 77.46875 L 247.351562 54.777344 L 249.652344 57.078125 L 251.605469 42.933594 L 253.90625 44.582031 L 257.511719 29.789062 L 263.105469 36.035156 L 266.058594 31.78125 L 268.355469 44.277344 L 271.308594 43.28125 L 272.304688 47.878906 L 273.953125 46.230469 L 276.253906 61.027344 L 277.902344 60.375 L 279.855469 76.167969 L 280.851562 79.464844 L 280.851562 298.710938 L 286.449219 298.710938 L 286.449219 309.214844 L 288.402344 309.214844 L 288.402344 232.628906 L 290.359375 232.628906 L 290.359375 222.78125 L 297.257812 222.78125 L 297.257812 191.886719 L 299.214844 191.886719 L 299.214844 185.292969 C 299.214844 185.292969 312.359375 176.09375 337.65625 176.398438 L 339.957031 176.398438 L 339.957031 184.984375 L 342.257812 187.9375 L 342.257812 411.480469 L 349.808594 411.480469 L 351.457031 408.835938 L 364.605469 408.835938 L 364.605469 405.882812 L 375.796875 405.882812 L 377.292969 407.378906 L 377.292969 77.816406 L 380.011719 75.09375 L 380.011719 62.675781 L 383.003906 59.683594 L 383.003906 53.476562 C 383.003906 53.476562 385.992188 43.929688 394.539062 39.984375 C 394.539062 39.984375 398.488281 41.9375 398.144531 19.285156 L 399.445312 18.941406 C 399.445312 18.941406 397.492188 35.039062 402.742188 39.636719 C 402.742188 39.636719 412.058594 42.589844 415.007812 53.4375 L 415.007812 60.988281 L 417.539062 62.941406 L 418.191406 67.199219 L 418.191406 74.441406 L 418.839844 77.738281 L 418.839844 123.429688 L 428.386719 127.683594 L 428.386719 136.308594 L 432.984375 136.308594 L 432.984375 143.207031 L 435.9375 143.207031 L 435.9375 148.152344 L 439.882812 156.046875 L 439.882812 186.632812 L 443.179688 186.632812 L 440.535156 181.691406 L 449.582031 172.644531 L 449.582031 169.539062 L 466.832031 169.539062 L 466.832031 172.492188 L 476.679688 182.339844 L 473.730469 185.945312 L 477.027344 186.289062 L 478.328125 190.238281 L 478.328125 338.152344 L 482.585938 338.152344 L 482.585938 343.40625 L 485.535156 343.40625 L 485.535156 353.90625 L 487.492188 353.90625 L 487.492188 406.535156 L 491.09375 406.535156 L 493.394531 404.234375 L 493.394531 222.128906 L 496.996094 222.128906 L 496.996094 214.882812 L 501.597656 212.929688 L 501.597656 208.675781 L 504.242188 208.675781 C 504.242188 208.675781 500.945312 198.171875 513.441406 197.828125 C 513.441406 197.828125 526.585938 196.179688 527.585938 207.371094 L 530.535156 209.671875 L 533.179688 213.617188 L 533.179688 197.828125 L 569.019531 197.828125 L 571.96875 199.128906 L 575.265625 154.09375 L 581.167969 154.09375 C 581.167969 154.09375 582.167969 129.445312 588.070312 105.449219 L 597.957031 105.449219 L 599.261719 99.546875 L 602.863281 99.546875 L 603.210938 110.742188 C 603.210938 110.742188 606.160156 108.097656 604.859375 186.019531 L 608.960938 190.121094 L 608.960938 335.585938 L 637.707031 335.585938 L 637.707031 370.425781 L 642.304688 370.425781 C 642.304688 370.425781 633.414062 263.601562 635.0625 211.96875 C 635.0625 211.96875 638.011719 141.941406 638.359375 136.34375 L 644.949219 131.746094 L 683.394531 131.746094 C 683.394531 131.746094 687.652344 205.378906 685.695312 237.269531 L 683.050781 354.941406 L 687.304688 354.941406 L 687.304688 350.6875 L 689.605469 348.386719 L 689.605469 331.945312 L 709 331.945312 C 709 331.945312 711.644531 326.691406 715.898438 321.441406 C 715.898438 321.441406 720.15625 325.042969 722.148438 329.988281 L 735.945312 329.988281 C 735.945312 329.988281 733.648438 330.640625 733.648438 339.1875 C 733.648438 339.1875 734.296875 335.890625 739.550781 334.242188 C 739.550781 334.242188 737.59375 335.242188 738.898438 347.046875 L 749.402344 347.046875 L 749.402344 420.296875 Z M -16.933594 420.332031 " fill-opacity="1" fill-rule="nonzero"/></g><g clip-path="url(#0b7bee7dfd)"><path fill="#c63d2f" d="M -16.742188 348.386719 L -11.109375 348.386719 L -11.109375 287.980469 L -3.632812 287.980469 L -3.632812 280.964844 L 15.570312 280.964844 L 15.570312 288.9375 L 20.707031 288.9375 L 20.707031 316.074219 L 25.382812 316.074219 L 25.382812 323.089844 L 28.179688 323.089844 L 28.179688 290.316406 L 31.9375 290.316406 L 31.9375 285.179688 L 41.328125 285.179688 L 41.328125 270.652344 L 50.449219 261.53125 L 52.789062 259.195312 L 52.789062 238.839844 L 59.457031 232.171875 L 66.128906 238.839844 L 66.128906 258.964844 L 69.882812 258.964844 L 69.882812 270.195312 L 74.101562 270.195312 L 74.101562 346.507812 L 78.777344 346.507812 L 78.777344 316.074219 L 83.453125 316.074219 L 83.453125 260.382812 L 99.820312 260.382812 L 99.820312 238.839844 L 103.574219 235.582031 L 103.574219 218.714844 L 111.546875 218.714844 L 111.546875 206.527344 L 120.441406 206.527344 L 126.074219 195.296875 L 133.089844 205.609375 L 140.566406 205.609375 L 140.566406 217.296875 L 147.117188 217.296875 L 147.117188 236.960938 L 149.6875 239.53125 L 149.6875 338.996094 L 156.164062 338.996094 L 156.164062 267.816406 L 164.445312 267.816406 L 164.445312 242.519531 L 171.457031 242.519531 L 171.457031 267.816406 L 181.269531 267.816406 L 181.269531 291.238281 L 184.070312 291.238281 L 184.070312 230.828125 L 189.28125 230.828125 L 199.09375 221.476562 L 199.09375 216.800781 L 200.972656 216.800781 L 200.972656 221.476562 L 213.160156 230.367188 L 234.242188 230.367188 L 234.242188 257.046875 L 239.878906 247.695312 L 244.09375 256.128906 L 244.09375 270.15625 L 248.3125 270.15625 L 248.3125 294.035156 L 260.960938 294.035156 L 260.960938 266.398438 L 273.148438 255.167969 L 291.394531 255.167969 L 299.367188 260.804688 L 299.367188 311.359375 L 311.554688 311.359375 L 311.554688 280.464844 L 342.910156 280.464844 L 342.910156 309.941406 L 349.464844 309.941406 L 349.464844 291.199219 L 392.546875 291.199219 L 392.546875 315.539062 L 415.964844 315.539062 L 415.964844 329.566406 L 434.210938 329.566406 L 434.210938 286.484375 L 442.644531 286.484375 L 442.644531 276.171875 L 444.984375 276.171875 L 444.984375 264.484375 L 447.320312 264.484375 L 447.320312 256.511719 L 475.417969 256.511719 L 475.417969 264.484375 L 478.214844 264.484375 L 478.214844 287.40625 L 496 287.40625 L 496 300.054688 L 520.800781 300.054688 L 520.800781 272.417969 L 523.136719 272.417969 L 523.136719 261.1875 L 525.476562 261.1875 L 525.476562 251.835938 L 528.734375 251.835938 L 528.734375 245.738281 L 550.277344 245.738281 L 550.277344 250.875 L 554.953125 250.875 L 554.953125 259.308594 L 556.828125 259.308594 L 556.828125 281.308594 L 602.25 281.308594 L 602.25 340.300781 L 606.007812 340.300781 L 606.007812 324.851562 L 623.792969 324.851562 L 623.792969 299.09375 L 633.605469 299.09375 L 633.605469 295.339844 L 659.363281 295.339844 L 659.363281 289.246094 L 659.363281 379.589844 C 659.363281 379.589844 666.835938 384.265625 666.835938 379.589844 C 666.835938 374.914062 666.835938 299.515625 666.835938 299.515625 L 690.71875 299.515625 L 690.71875 380.507812 L 694.472656 380.507812 L 694.472656 299.515625 L 720.230469 299.515625 L 720.230469 384.265625 L 723.03125 384.265625 L 723.03125 325.273438 L 749.707031 325.273438 L 749.707031 419.566406 L -16.742188 419.566406 C -16.742188 419.566406 -17.203125 347.925781 -16.742188 348.386719 Z M -16.742188 348.386719 " fill-opacity="1" fill-rule="nonzero"/></g></g></g></g></g><g clip-path="url(#3b2fa754ad)"><path fill="#e4b49f" d="M 0 419.582031 L 1024.285156 419.582031 L 1024.285156 575.109375 L 0 575.109375 Z M 0 419.582031 " fill-opacity="1" fill-rule="nonzero"/></g><g clip-path="url(#328ef7ce19)"><g mask="url(#a18bdf6bdb)"><g transform="matrix(1, 0, 0, 1, 0, 0.000000000000055289)"><g clip-path="url(#6f14b16a27)"><g clip-path="url(#ab9327744a)"><g mask="url(#2a41a9c051)"><g transform="matrix(1, 0, 0, 1, 389, 0.000000000000055289)"><g clip-path="url(#2bf70a5f52)"><g clip-path="url(#facffdba86)"><path fill="#f5f5dc" d="M 767.480469 -0.609375 L 0.875 -0.609375 L 0.875 573.730469 L 767.480469 573.730469 Z M 767.480469 -0.609375 " fill-opacity="1" fill-rule="nonzero"/></g><g clip-path="url(#03b126d500)"><path fill="#ff9b50" d="M 767.480469 547.398438 C 767.480469 547.398438 20.65625 549.886719 19.695312 549.046875 L 1.105469 549.046875 L 1.105469 281.652344 L 14.90625 281.652344 L 14.90625 274.640625 L 37.441406 274.640625 L 37.441406 282.613281 L 43.5 282.613281 L 43.5 309.75 L 48.980469 309.75 L 48.980469 316.765625 L 52.277344 316.765625 L 52.277344 283.992188 L 56.683594 283.992188 L 56.683594 278.855469 L 67.683594 278.855469 L 67.683594 264.328125 L 78.417969 255.207031 L 81.175781 252.867188 L 81.175781 232.515625 L 88.996094 225.84375 L 96.816406 232.515625 L 96.816406 252.636719 L 101.222656 252.636719 L 101.222656 263.867188 L 106.167969 263.867188 L 106.167969 547.167969 L 111.648438 547.167969 L 111.648438 309.75 L 117.132812 309.75 L 117.132812 254.054688 L 136.375 254.054688 L 136.375 232.515625 L 140.78125 229.257812 L 140.78125 212.390625 L 150.132812 212.390625 L 150.132812 200.203125 L 160.597656 200.203125 L 167.191406 188.972656 L 175.433594 199.28125 L 184.246094 199.28125 L 184.246094 210.972656 L 191.953125 210.972656 L 191.953125 230.636719 L 194.980469 233.203125 L 194.980469 539.65625 L 202.570312 539.65625 L 202.570312 261.53125 L 212.265625 261.53125 L 212.265625 236.234375 L 220.507812 236.234375 L 220.507812 261.53125 L 232.046875 261.53125 L 232.046875 284.949219 L 235.339844 284.949219 L 235.339844 224.542969 L 241.398438 224.542969 L 252.933594 215.191406 L 252.933594 210.511719 L 255.121094 210.511719 L 255.121094 215.191406 L 269.417969 224.082031 L 294.179688 224.082031 L 294.179688 250.761719 L 300.769531 241.40625 L 305.714844 249.839844 L 305.714844 263.867188 L 310.660156 263.867188 L 310.660156 287.75 L 325.496094 287.75 L 325.496094 260.113281 L 339.792969 248.882812 L 361.21875 248.882812 L 370.570312 254.515625 L 370.570312 305.074219 L 384.945312 305.074219 L 384.945312 274.179688 L 421.78125 274.179688 L 421.78125 303.65625 L 429.484375 303.65625 L 429.484375 284.949219 L 480.078125 284.949219 L 480.078125 309.289062 L 507.5625 309.289062 L 507.5625 323.320312 L 528.988281 323.320312 L 528.988281 280.273438 L 538.878906 280.273438 L 538.878906 269.964844 L 541.636719 269.964844 L 541.636719 258.273438 L 544.398438 258.273438 L 544.398438 250.300781 L 577.398438 250.300781 L 577.398438 258.273438 L 580.695312 258.273438 L 580.695312 281.195312 L 601.585938 281.195312 L 601.585938 293.84375 L 630.71875 293.84375 L 630.71875 266.207031 L 633.476562 266.207031 L 633.476562 254.976562 L 636.238281 254.976562 L 636.238281 245.625 L 640.070312 245.625 L 640.070312 239.53125 L 665.367188 239.53125 L 665.367188 244.664062 L 670.886719 244.664062 L 670.886719 253.097656 L 673.070312 253.097656 L 673.070312 275.101562 L 726.390625 275.101562 L 726.390625 541.074219 L 730.796875 541.074219 L 730.796875 318.644531 L 751.6875 318.644531 L 751.6875 292.886719 L 763.226562 289.167969 Z M 767.480469 547.398438 " fill-opacity="1" fill-rule="nonzero"/></g><g clip-path="url(#587863761f)"><path fill="#e25e3e" d="M 767.480469 575.109375 L 767.480469 541.914062 L 758.585938 541.914062 L 758.585938 462.035156 L 753.679688 462.035156 L 753.679688 456.441406 L 724.433594 446.589844 L 724.433594 389.054688 L 715.234375 387.753906 L 715.234375 380.199219 L 719.835938 378.554688 L 686.601562 378.554688 L 690.550781 380.507812 L 690.550781 388.058594 C 690.550781 388.058594 685.605469 388.402344 683.652344 388.710938 L 683.652344 402.855469 L 680.046875 400.210938 L 680.046875 387.0625 L 678.746094 387.0625 L 678.746094 400.171875 L 674.796875 404.117188 L 674.796875 315.730469 L 657.816406 264.980469 L 655.09375 263.332031 L 655.09375 243.054688 L 653.675781 240.105469 L 652.144531 243.171875 L 652.144531 263.21875 L 650.074219 264.328125 L 644.707031 280.234375 L 632.558594 286.484375 L 632.558594 295.566406 L 630.257812 295.566406 L 630.257812 289.855469 L 627.957031 295.339844 C 627.957031 295.339844 624.46875 296.335938 624.46875 300.703125 C 624.46875 305.074219 624.46875 557.785156 624.46875 557.785156 L 621.058594 557.785156 L 619.292969 558.667969 L 619.410156 554.832031 L 615.347656 554.832031 L 615.347656 519.339844 L 616.265625 518.417969 L 617.300781 517.382812 L 617.300781 511.25 L 605.574219 511.25 L 605.574219 503.355469 L 606.761719 503.355469 L 606.761719 481.199219 L 593.152344 481.199219 L 591.277344 482.621094 L 591.277344 503.203125 L 592.578125 503.203125 L 592.578125 508.148438 L 590.277344 508.148438 L 590.277344 505.3125 L 584.683594 505.3125 L 584.683594 508.148438 L 583.035156 508.148438 L 583.035156 416.882812 L 580.621094 416.882812 L 580.621094 410.289062 L 579.46875 409.140625 L 579.46875 397.792969 L 580.851562 396.414062 L 579.507812 395.304688 L 579.625 391.046875 L 576.019531 391.046875 L 576.019531 393.117188 L 570.960938 393.117188 L 567.242188 390.933594 L 567.359375 388.980469 L 562.644531 388.980469 L 562.644531 322.820312 L 557.429688 322.820312 L 557.429688 326.230469 L 547.695312 326.230469 L 547.695312 312.96875 L 535.429688 312.96875 L 535.429688 325.773438 L 532.898438 325.773438 L 532.898438 323.128906 L 527.761719 323.128906 L 527.761719 328.265625 L 522.550781 328.265625 L 522.550781 264.136719 C 522.550781 264.136719 509.402344 250.988281 511.050781 229.296875 L 507.449219 232.246094 L 503.191406 209.554688 L 500.894531 211.855469 L 498.9375 197.710938 L 496.636719 199.359375 L 493.035156 184.5625 L 487.4375 190.8125 L 484.488281 186.558594 L 482.1875 199.050781 L 479.238281 198.054688 L 478.238281 202.65625 L 476.589844 201.007812 L 474.292969 215.804688 L 472.644531 215.152344 L 470.6875 230.941406 L 469.691406 234.238281 L 469.691406 453.488281 L 464.097656 453.488281 L 464.097656 463.992188 L 462.140625 463.992188 L 462.140625 387.40625 L 460.1875 387.40625 L 460.1875 377.554688 L 453.285156 377.554688 L 453.285156 346.664062 L 451.332031 346.664062 L 451.332031 340.070312 C 451.332031 340.070312 438.183594 330.871094 412.886719 331.175781 L 410.585938 331.175781 L 410.585938 339.761719 L 408.289062 342.714844 L 408.289062 566.253906 L 400.738281 566.253906 L 399.089844 563.609375 L 385.941406 563.609375 L 385.941406 560.660156 L 374.75 560.660156 L 373.253906 562.15625 L 373.253906 232.589844 L 370.53125 229.871094 L 370.53125 217.453125 L 367.542969 214.460938 L 367.542969 208.25 C 367.542969 208.25 364.550781 198.707031 356.003906 194.757812 C 356.003906 194.757812 352.058594 196.714844 352.402344 174.0625 L 351.097656 173.714844 C 351.097656 173.714844 353.054688 189.816406 347.800781 194.414062 C 347.800781 194.414062 338.488281 197.367188 335.535156 208.214844 L 335.535156 215.765625 L 333.007812 217.71875 L 332.355469 221.972656 L 332.355469 229.21875 L 331.703125 232.515625 L 331.703125 278.203125 L 322.160156 282.460938 L 322.160156 291.082031 L 317.558594 291.082031 L 317.558594 297.984375 L 314.609375 297.984375 L 314.609375 302.925781 L 310.660156 310.824219 L 310.660156 341.410156 L 307.363281 341.410156 L 310.007812 336.464844 L 300.964844 327.421875 L 300.964844 324.316406 L 283.714844 324.316406 L 283.714844 327.265625 L 273.863281 337.117188 L 276.816406 340.722656 L 273.519531 341.066406 L 272.214844 345.015625 L 272.214844 492.929688 L 267.960938 492.929688 L 267.960938 498.179688 L 265.007812 498.179688 L 265.007812 508.683594 L 263.054688 508.683594 L 263.054688 561.3125 L 259.453125 561.3125 L 257.152344 559.011719 L 257.152344 376.90625 L 253.546875 376.90625 L 253.546875 369.660156 L 248.949219 367.707031 L 248.949219 363.449219 L 246.304688 363.449219 C 246.304688 363.449219 249.601562 352.949219 237.105469 352.601562 C 237.105469 352.601562 223.957031 350.957031 222.960938 362.148438 L 220.007812 364.449219 L 217.363281 368.394531 L 217.363281 352.601562 L 181.527344 352.601562 L 178.574219 353.90625 L 175.277344 308.867188 L 169.375 308.867188 C 169.375 308.867188 168.378906 284.222656 162.476562 260.226562 L 152.585938 260.226562 L 151.285156 254.324219 L 147.679688 254.324219 L 147.335938 265.515625 C 147.335938 265.515625 144.382812 262.871094 145.6875 340.796875 L 141.585938 344.898438 L 141.585938 490.363281 L 112.839844 490.363281 L 112.839844 525.203125 L 108.238281 525.203125 C 108.238281 525.203125 117.132812 418.378906 115.484375 366.746094 C 115.484375 366.746094 112.53125 296.71875 112.1875 291.121094 L 105.59375 286.523438 L 67.148438 286.523438 C 67.148438 286.523438 62.894531 360.15625 64.847656 392.046875 L 67.492188 509.71875 L 63.238281 509.71875 L 63.238281 505.464844 L 60.941406 503.164062 L 60.941406 486.71875 L 41.542969 486.71875 C 41.542969 486.71875 38.898438 481.46875 34.644531 476.21875 C 34.644531 476.21875 30.390625 479.820312 28.398438 484.765625 L 14.597656 484.765625 C 14.597656 484.765625 16.898438 485.417969 16.898438 493.964844 C 16.898438 493.964844 16.246094 490.667969 10.996094 489.019531 C 10.996094 489.019531 12.949219 490.015625 11.648438 501.824219 L 1.144531 501.824219 L 1.144531 575.070312 Z M 767.480469 575.109375 " fill-opacity="1" fill-rule="nonzero"/></g><g clip-path="url(#54592981f5)"><path fill="#c63d2f" d="M 767.289062 503.164062 L 761.652344 503.164062 L 761.652344 442.757812 L 754.179688 442.757812 L 754.179688 435.742188 L 734.976562 435.742188 L 734.976562 443.714844 L 729.839844 443.714844 L 729.839844 470.851562 L 725.164062 470.851562 L 725.164062 477.867188 L 722.363281 477.867188 L 722.363281 445.09375 L 718.609375 445.09375 L 718.609375 439.957031 L 709.21875 439.957031 L 709.21875 425.429688 L 700.09375 416.308594 L 697.757812 413.96875 L 697.757812 393.617188 L 691.085938 386.945312 L 684.417969 393.617188 L 684.417969 413.738281 L 680.660156 413.738281 L 680.660156 424.972656 L 676.445312 424.972656 L 676.445312 501.285156 L 671.769531 501.285156 L 671.769531 470.851562 L 667.09375 470.851562 L 667.09375 415.15625 L 650.726562 415.15625 L 650.726562 393.617188 L 646.96875 390.359375 L 646.96875 373.492188 L 638.996094 373.492188 L 638.996094 361.304688 L 630.105469 361.304688 L 624.46875 350.074219 L 617.453125 360.382812 L 609.980469 360.382812 L 609.980469 372.074219 L 603.425781 372.074219 L 603.425781 391.738281 L 600.859375 394.304688 L 600.859375 493.773438 L 594.378906 493.773438 L 594.378906 422.59375 L 586.101562 422.59375 L 586.101562 397.296875 L 579.085938 397.296875 L 579.085938 422.59375 L 569.273438 422.59375 L 569.273438 446.015625 L 566.476562 446.015625 L 566.476562 385.605469 L 561.261719 385.605469 L 551.449219 376.253906 L 551.449219 371.578125 L 549.574219 371.578125 L 549.574219 376.253906 L 537.382812 385.144531 L 516.300781 385.144531 L 516.300781 411.824219 L 510.667969 402.472656 L 506.449219 410.902344 L 506.449219 424.933594 L 502.234375 424.933594 L 502.234375 448.8125 L 489.585938 448.8125 L 489.585938 421.175781 L 477.398438 409.945312 L 459.152344 409.945312 L 451.179688 415.578125 L 451.179688 466.136719 L 438.988281 466.136719 L 438.988281 435.242188 L 407.636719 435.242188 L 407.636719 464.71875 L 401.082031 464.71875 L 401.082031 445.976562 L 358 445.976562 L 358 470.316406 L 334.578125 470.316406 L 334.578125 484.34375 L 316.332031 484.34375 L 316.332031 441.261719 L 307.902344 441.261719 L 307.902344 430.949219 L 305.5625 430.949219 L 305.5625 419.257812 L 303.222656 419.257812 L 303.222656 411.285156 L 275.128906 411.285156 L 275.128906 419.257812 L 272.332031 419.257812 L 272.332031 442.179688 L 254.546875 442.179688 L 254.546875 454.828125 L 229.746094 454.828125 L 229.746094 427.195312 L 227.40625 427.195312 L 227.40625 415.964844 L 225.070312 415.964844 L 225.070312 406.609375 L 221.8125 406.609375 L 221.8125 400.515625 L 200.269531 400.515625 L 200.269531 405.652344 L 195.59375 405.652344 L 195.59375 414.085938 L 193.714844 414.085938 L 193.714844 436.085938 L 148.292969 436.085938 L 148.292969 495.078125 L 144.539062 495.078125 L 144.539062 479.628906 L 126.753906 479.628906 L 126.753906 453.871094 L 116.941406 453.871094 L 116.941406 450.117188 L 91.183594 450.117188 L 91.183594 444.019531 L 91.183594 534.363281 C 91.183594 534.363281 83.707031 539.042969 83.707031 534.363281 C 83.707031 529.6875 83.707031 454.292969 83.707031 454.292969 L 59.828125 454.292969 L 59.828125 535.285156 L 56.070312 535.285156 L 56.070312 454.292969 L 30.3125 454.292969 L 30.3125 539.042969 L 27.515625 539.042969 L 27.515625 480.050781 L 0.835938 480.050781 L 0.835938 574.34375 L 767.289062 574.34375 C 767.289062 574.34375 767.746094 502.703125 767.289062 503.164062 Z M 767.289062 503.164062 " fill-opacity="1" fill-rule="nonzero"/></g></g></g></g></g><g clip-path="url(#76312736fb)"><g mask="url(#73ce9a1e72)"><g transform="matrix(1, 0, 0, 1, 0, 0.000000000000055289)"><g clip-path="url(#0193e4521c)"><g clip-path="url(#f23c07bf9d)"><path fill="#f5f5dc" d="M -376.769531 -0.609375 L 389.832031 -0.609375 L 389.832031 573.730469 L -376.769531 573.730469 Z M -376.769531 -0.609375 " fill-opacity="1" fill-rule="nonzero"/></g><g clip-path="url(#313b963776)"><path fill="#ff9b50" d="M -376.769531 547.398438 C -376.769531 547.398438 370.054688 549.886719 371.011719 549.046875 L 389.605469 549.046875 L 389.605469 281.652344 L 375.804688 281.652344 L 375.804688 274.640625 L 353.265625 274.640625 L 353.265625 282.613281 L 347.210938 282.613281 L 347.210938 309.75 L 341.730469 309.75 L 341.730469 316.765625 L 338.433594 316.765625 L 338.433594 283.992188 L 334.023438 283.992188 L 334.023438 278.855469 L 323.023438 278.855469 L 323.023438 264.328125 L 312.292969 255.207031 L 309.53125 252.867188 L 309.53125 232.515625 L 301.710938 225.84375 L 293.894531 232.515625 L 293.894531 252.636719 L 289.484375 252.636719 L 289.484375 263.867188 L 284.539062 263.867188 L 284.539062 547.167969 L 279.058594 547.167969 L 279.058594 309.75 L 273.578125 309.75 L 273.578125 254.054688 L 254.335938 254.054688 L 254.335938 232.515625 L 249.929688 229.257812 L 249.929688 212.390625 L 240.574219 212.390625 L 240.574219 200.203125 L 230.113281 200.203125 L 223.519531 188.972656 L 215.277344 199.28125 L 206.460938 199.28125 L 206.460938 210.972656 L 198.757812 210.972656 L 198.757812 230.636719 L 195.730469 233.203125 L 195.730469 539.65625 L 188.140625 539.65625 L 188.140625 261.53125 L 178.441406 261.53125 L 178.441406 236.234375 L 170.203125 236.234375 L 170.203125 261.53125 L 158.664062 261.53125 L 158.664062 284.949219 L 155.367188 284.949219 L 155.367188 224.542969 L 149.3125 224.542969 L 137.773438 215.191406 L 137.773438 210.511719 L 135.589844 210.511719 L 135.589844 215.191406 L 121.292969 224.082031 L 96.53125 224.082031 L 96.53125 250.761719 L 89.9375 241.40625 L 84.992188 249.839844 L 84.992188 263.867188 L 80.050781 263.867188 L 80.050781 287.75 L 65.214844 287.75 L 65.214844 260.113281 L 50.917969 248.882812 L 29.492188 248.882812 L 20.140625 254.515625 L 20.140625 305.074219 L 5.765625 305.074219 L 5.765625 274.179688 L -31.070312 274.179688 L -31.070312 303.65625 L -38.773438 303.65625 L -38.773438 284.949219 L -89.371094 284.949219 L -89.371094 309.289062 L -116.851562 309.289062 L -116.851562 323.320312 L -138.28125 323.320312 L -138.28125 280.273438 L -148.167969 280.273438 L -148.167969 269.964844 L -150.929688 269.964844 L -150.929688 258.273438 L -153.6875 258.273438 L -153.6875 250.300781 L -186.691406 250.300781 L -186.691406 258.273438 L -189.988281 258.273438 L -189.988281 281.195312 L -210.875 281.195312 L -210.875 293.84375 L -240.007812 293.84375 L -240.007812 266.207031 L -242.765625 266.207031 L -242.765625 254.976562 L -245.527344 254.976562 L -245.527344 245.625 L -249.359375 245.625 L -249.359375 239.53125 L -274.65625 239.53125 L -274.65625 244.664062 L -280.175781 244.664062 L -280.175781 253.097656 L -282.363281 253.097656 L -282.363281 275.101562 L -335.679688 275.101562 L -335.679688 541.074219 L -340.085938 541.074219 L -340.085938 318.644531 L -360.976562 318.644531 L -360.976562 292.886719 L -372.515625 289.167969 Z M -376.769531 547.398438 " fill-opacity="1" fill-rule="nonzero"/></g><g clip-path="url(#2357f06e6e)"><path fill="#e25e3e" d="M -376.769531 575.109375 L -376.769531 541.914062 L -367.878906 541.914062 L -367.878906 462.035156 L -362.972656 462.035156 L -362.972656 456.441406 L -333.726562 446.589844 L -333.726562 389.054688 L -324.527344 387.753906 L -324.527344 380.199219 L -329.125 378.554688 L -295.894531 378.554688 L -299.839844 380.507812 L -299.839844 388.058594 C -299.839844 388.058594 -294.894531 388.402344 -292.941406 388.710938 L -292.941406 402.855469 L -289.339844 400.210938 L -289.339844 387.0625 L -288.035156 387.0625 L -288.035156 400.171875 L -284.085938 404.117188 L -284.085938 315.730469 L -267.105469 264.980469 L -264.386719 263.332031 L -264.386719 243.054688 L -262.96875 240.105469 L -261.433594 243.171875 L -261.433594 263.21875 L -259.363281 264.328125 L -254 280.234375 L -241.847656 286.484375 L -241.847656 295.566406 L -239.546875 295.566406 L -239.546875 289.855469 L -237.246094 295.339844 C -237.246094 295.339844 -233.757812 296.335938 -233.757812 300.703125 C -233.757812 305.074219 -233.757812 557.785156 -233.757812 557.785156 L -230.347656 557.785156 L -228.585938 558.667969 L -228.699219 554.832031 L -224.636719 554.832031 L -224.636719 519.339844 L -226.59375 517.382812 L -226.59375 511.25 L -214.863281 511.25 L -214.863281 503.355469 L -216.050781 503.355469 L -216.050781 481.199219 L -202.445312 481.199219 L -200.566406 482.621094 L -200.566406 503.203125 L -201.867188 503.203125 L -201.867188 508.148438 L -199.570312 508.148438 L -199.570312 505.3125 L -193.972656 505.3125 L -193.972656 508.148438 L -192.324219 508.148438 L -192.324219 416.882812 L -189.910156 416.882812 L -189.910156 410.289062 L -188.761719 409.140625 L -188.761719 397.792969 L -190.140625 396.414062 L -188.796875 395.304688 L -188.914062 391.046875 L -185.308594 391.046875 L -185.308594 393.117188 L -180.25 393.117188 L -176.53125 390.933594 L -176.648438 388.980469 L -171.933594 388.980469 L -171.933594 322.820312 L -166.71875 322.820312 L -166.71875 326.230469 L -156.984375 326.230469 L -156.984375 312.96875 L -144.71875 312.96875 L -144.71875 325.773438 L -142.1875 325.773438 L -142.1875 323.128906 L -137.054688 323.128906 L -137.054688 328.265625 L -131.839844 328.265625 L -131.839844 264.136719 C -131.839844 264.136719 -118.691406 250.988281 -120.339844 229.296875 L -116.738281 232.246094 L -112.484375 209.554688 L -110.183594 211.855469 L -108.226562 197.710938 L -105.929688 199.359375 L -102.324219 184.5625 L -96.730469 190.8125 L -93.777344 186.558594 L -91.476562 199.050781 L -88.527344 198.054688 L -87.53125 202.65625 L -85.882812 201.007812 L -83.582031 215.804688 L -81.933594 215.152344 L -79.980469 230.941406 L -78.984375 234.238281 L -78.984375 453.488281 L -73.386719 453.488281 L -73.386719 463.992188 L -71.429688 463.992188 L -71.429688 387.40625 L -69.476562 387.40625 L -69.476562 377.554688 L -62.578125 377.554688 L -62.578125 346.664062 L -60.621094 346.664062 L -60.621094 340.070312 C -60.621094 340.070312 -47.476562 330.871094 -22.175781 331.175781 L -19.878906 331.175781 L -19.878906 339.761719 L -17.578125 342.714844 L -17.578125 566.253906 L -10.027344 566.253906 L -8.378906 563.609375 L 4.769531 563.609375 L 4.769531 560.660156 L 15.960938 560.660156 L 17.457031 562.15625 L 17.457031 232.589844 L 20.175781 229.871094 L 20.175781 217.453125 L 23.167969 214.460938 L 23.167969 208.25 C 23.167969 208.25 26.15625 198.707031 34.703125 194.757812 C 34.703125 194.757812 38.652344 196.714844 38.308594 174.0625 L 39.609375 173.714844 C 39.609375 173.714844 37.65625 189.816406 42.90625 194.414062 C 42.90625 194.414062 52.222656 197.367188 55.171875 208.214844 L 55.171875 215.765625 L 57.703125 217.71875 L 58.355469 221.972656 L 58.355469 229.21875 L 59.007812 232.515625 L 59.007812 278.203125 L 68.550781 282.460938 L 68.550781 291.082031 L 73.148438 291.082031 L 73.148438 297.984375 L 76.101562 297.984375 L 76.101562 302.925781 L 80.050781 310.824219 L 80.050781 341.410156 L 83.34375 341.410156 L 80.699219 336.464844 L 89.746094 327.421875 L 89.746094 324.316406 L 106.996094 324.316406 L 106.996094 327.265625 L 116.847656 337.117188 L 113.894531 340.722656 L 117.191406 341.066406 L 118.496094 345.015625 L 118.496094 492.929688 L 122.75 492.929688 L 122.75 498.179688 L 125.699219 498.179688 L 125.699219 508.683594 L 127.65625 508.683594 L 127.65625 561.3125 L 131.257812 561.3125 L 133.558594 559.011719 L 133.558594 376.90625 L 137.160156 376.90625 L 137.160156 369.660156 L 141.761719 367.707031 L 141.761719 363.449219 L 144.40625 363.449219 C 144.40625 363.449219 141.109375 352.949219 153.605469 352.601562 C 153.605469 352.601562 166.753906 350.957031 167.75 362.148438 L 170.699219 364.449219 L 173.34375 368.394531 L 173.34375 352.601562 L 209.183594 352.601562 L 212.136719 353.90625 L 215.429688 308.867188 L 221.335938 308.867188 C 221.335938 308.867188 222.332031 284.222656 228.234375 260.226562 L 238.121094 260.226562 L 239.425781 254.324219 L 243.027344 254.324219 L 243.375 265.515625 C 243.375 265.515625 246.324219 262.871094 245.023438 340.796875 L 249.125 344.898438 L 249.125 490.363281 L 277.871094 490.363281 L 277.871094 525.203125 L 282.472656 525.203125 C 282.472656 525.203125 273.578125 418.378906 275.226562 366.746094 C 275.226562 366.746094 278.179688 296.71875 278.523438 291.121094 L 285.117188 286.523438 L 323.5625 286.523438 C 323.5625 286.523438 327.816406 360.15625 325.859375 392.046875 L 323.214844 509.71875 L 327.46875 509.71875 L 327.46875 505.464844 L 329.769531 503.164062 L 329.769531 486.71875 L 349.164062 486.71875 C 349.164062 486.71875 351.808594 481.46875 356.066406 476.21875 C 356.066406 476.21875 360.320312 479.820312 362.3125 484.765625 L 376.109375 484.765625 C 376.109375 484.765625 373.8125 485.417969 373.8125 493.964844 C 373.8125 493.964844 374.464844 490.667969 379.714844 489.019531 C 379.714844 489.019531 377.757812 490.015625 379.0625 501.824219 L 389.566406 501.824219 L 389.566406 575.070312 Z M -376.769531 575.109375 " fill-opacity="1" fill-rule="nonzero"/></g><g clip-path="url(#0d8fa2460c)"><path fill="#c63d2f" d="M -376.578125 503.164062 L -370.945312 503.164062 L -370.945312 442.757812 L -363.46875 442.757812 L -363.46875 435.742188 L -344.265625 435.742188 L -344.265625 443.714844 L -339.128906 443.714844 L -339.128906 470.851562 L -334.453125 470.851562 L -334.453125 477.867188 L -331.65625 477.867188 L -331.65625 445.09375 L -327.898438 445.09375 L -327.898438 439.957031 L -318.507812 439.957031 L -318.507812 425.429688 L -307.046875 413.96875 L -307.046875 393.617188 L -300.378906 386.945312 L -293.707031 393.617188 L -293.707031 413.738281 L -289.953125 413.738281 L -289.953125 424.972656 L -285.734375 424.972656 L -285.734375 501.285156 L -281.058594 501.285156 L -281.058594 470.851562 L -276.382812 470.851562 L -276.382812 415.15625 L -260.015625 415.15625 L -260.015625 393.617188 L -256.257812 390.359375 L -256.257812 373.492188 L -248.285156 373.492188 L -248.285156 361.304688 L -239.394531 361.304688 L -233.757812 350.074219 L -226.746094 360.382812 L -219.269531 360.382812 L -219.269531 372.074219 L -212.714844 372.074219 L -212.714844 391.738281 L -210.148438 394.304688 L -210.148438 493.773438 L -203.671875 493.773438 L -203.671875 422.59375 L -195.390625 422.59375 L -195.390625 397.296875 L -188.375 397.296875 L -188.375 422.59375 L -178.5625 422.59375 L -178.5625 446.015625 L -175.765625 446.015625 L -175.765625 385.605469 L -170.554688 385.605469 L -160.742188 376.253906 L -160.742188 371.578125 L -158.863281 371.578125 L -158.863281 376.253906 L -146.671875 385.144531 L -125.59375 385.144531 L -125.59375 411.824219 L -119.957031 402.472656 L -115.742188 410.902344 L -115.742188 424.933594 L -111.523438 424.933594 L -111.523438 448.8125 L -98.875 448.8125 L -98.875 421.175781 L -86.6875 409.945312 L -68.441406 409.945312 L -60.46875 415.578125 L -60.46875 466.136719 L -48.28125 466.136719 L -48.28125 435.242188 L -16.925781 435.242188 L -16.925781 464.71875 L -10.371094 464.71875 L -10.371094 445.976562 L 32.710938 445.976562 L 32.710938 470.316406 L 56.132812 470.316406 L 56.132812 484.34375 L 74.375 484.34375 L 74.375 441.261719 L 82.808594 441.261719 L 82.808594 430.949219 L 85.148438 430.949219 L 85.148438 419.257812 L 87.484375 419.257812 L 87.484375 411.285156 L 115.582031 411.285156 L 115.582031 419.257812 L 118.378906 419.257812 L 118.378906 442.179688 L 136.164062 442.179688 L 136.164062 454.828125 L 160.964844 454.828125 L 160.964844 427.195312 L 163.300781 427.195312 L 163.300781 415.964844 L 165.640625 415.964844 L 165.640625 406.609375 L 168.898438 406.609375 L 168.898438 400.515625 L 190.441406 400.515625 L 190.441406 405.652344 L 195.117188 405.652344 L 195.117188 414.085938 L 196.996094 414.085938 L 196.996094 436.085938 L 242.414062 436.085938 L 242.414062 495.078125 L 246.171875 495.078125 L 246.171875 479.628906 L 263.957031 479.628906 L 263.957031 453.871094 L 273.769531 453.871094 L 273.769531 450.117188 L 299.527344 450.117188 L 299.527344 444.019531 L 299.527344 534.363281 C 299.527344 534.363281 307.003906 539.042969 307.003906 534.363281 C 307.003906 529.6875 307.003906 454.292969 307.003906 454.292969 L 330.882812 454.292969 L 330.882812 535.285156 L 334.636719 535.285156 L 334.636719 454.292969 L 360.394531 454.292969 L 360.394531 539.042969 L 363.195312 539.042969 L 363.195312 480.050781 L 389.871094 480.050781 L 389.871094 574.34375 L -376.578125 574.34375 C -376.578125 574.34375 -377.039062 502.703125 -376.578125 503.164062 Z M -376.578125 503.164062 " fill-opacity="1" fill-rule="nonzero"/></g></g></g></g></g></g></g></g><g mask="url(#481fd443c1)"><g transform="matrix(1, 0, 0, 1, 0, 0.000000000000055289)"><g clip-path="url(#9e429eb11e)"><g clip-path="url(#1036ca94b1)"><rect x="-225.39" width="1475.28" fill="#f5f5dc" height="829.44" y="-126.72" fill-opacity="1"/></g></g></g></g></g></svg>